# xmcd
#
# Track frame offsets: 
#        150
#        26209
#        54931
#        75982
#
# Disc length: 1357 seconds
#
# Revision: 0
# Processed by: cddbd v1.5.1PL2 Copyright (c) Steve Scherf et al.
# Submitted via: ExactAudioCopy v0.95b4
#
DISCID=23054b04
DTITLE=Death From Above 1979 - Romantic Rights CDS
DYEAR=2005
DGENRE=Blues
TTITLE0=Romantic Rights (Jesper Dahlback Remix)
TTITLE1=Romantic Rights (Erol Alkan Remix)
TTITLE2=Black History Month (Josh Homme Remix)
TTITLE3=Romantic Rights (Jesper Dahlback Dub)
EXTD=
EXTT0=
EXTT1=
EXTT2=
EXTT3=
PLAYORDER=
